<?xml version="1.0" standalone="no"?>
<!DOCTYPE svg PUBLIC "-//W3C//DTD SVG 20010904//EN"
 "http://www.w3.org/TR/2001/REC-SVG-20010904/DTD/svg10.dtd">
<svg version="1.0" xmlns="http://www.w3.org/2000/svg"
 width="256.000000pt" height="256.000000pt" viewBox="0 0 256.000000 256.000000"
 preserveAspectRatio="xMidYMid meet">
<metadata>
Created by potrace 1.14, written by Peter Selinger 2001-2017
</metadata>
<g transform="translate(0.000000,256.000000) scale(0.100000,-0.100000)"
fill="#000000" stroke="none">
<path d="M1329 1797 c-40 -30 -40 -50 1 -113 22 -32 38 -66 35 -74 -2 -8 -7
-42 -10 -75 -4 -42 -19 -86 -48 -144 -38 -75 -47 -87 -91 -110 -80 -42 -84
-47 -89 -131 -6 -100 -12 -112 -43 -98 -22 10 -101 119 -148 203 -20 37 -34
58 -68 108 -30 44 -31 43 26 155 34 68 35 70 16 87 -26 23 -51 13 -88 -38 -39
-53 -77 -97 -85 -97 -14 0 -57 76 -57 100 0 14 -8 30 -18 37 -11 6 -26 38 -36
72 -18 64 -39 81 -76 61 -21 -11 -23 -27 -11 -70 5 -17 2 -33 -10 -51 -10 -14
-26 -47 -37 -73 -10 -26 -37 -70 -61 -97 -35 -41 -44 -59 -52 -112 -11 -74
-48 -197 -59 -197 -8 0 -7 -13 2 -40 3 -8 13 -44 23 -80 16 -64 50 -128 108
-202 44 -57 52 -50 52 45 0 59 5 92 18 119 18 35 19 36 45 22 31 -16 79 -10
104 13 17 15 20 15 40 -3 56 -48 56 -48 33 -70 -8 -9 -15 -25 -15 -38 0 -33
-56 -114 -91 -134 -80 -44 -145 -110 -153 -155 -5 -28 44 -107 67 -107 6 0 21
-3 32 -5 33 -9 46 7 36 43 -7 22 -6 34 2 39 6 3 13 1 15 -5 6 -19 39 -14 44 6
3 9 4 33 4 52 -2 33 15 59 39 60 6 0 9 -25 6 -62 -3 -60 -5 -65 -50 -108 -26
-25 -60 -71 -75 -103 -32 -64 -30 -105 5 -166 22 -37 24 -34 -42 -72 -21 -12
-43 -32 -50 -45 -10 -20 -9 -26 11 -42 19 -15 39 -18 144 -16 142 3 169 7 203
29 33 22 38 41 24 82 -18 50 -4 60 51 38 25 -10 77 -19 123 -21 62 -2 82 -7
92 -20 7 -10 10 -20 5 -23 -20 -15 -73 -105 -70 -120 2 -12 14 -16 43 -16 22
0 46 -6 54 -13 7 -7 21 -10 30 -8 55 17 73 17 94 3 22 -14 27 -13 75 20 60 39
70 65 48 118 -9 21 -16 41 -16 45 0 4 39 7 86 5 145 -5 260 37 342 123 47 51
97 143 116 217 7 28 20 53 31 59 90 50 105 82 82 178 -12 49 -12 62 -1 84 8
14 14 28 14 30 0 9 -62 -28 -81 -47 -28 -28 -33 -18 -14 27 23 54 27 78 15
108 -6 17 -6 26 0 26 15 0 93 -50 108 -69 33 -42 61 -100 66 -140 7 -51 24
-77 39 -62 13 13 16 27 22 101 7 92 -58 347 -96 374 -75 52 -179 152 -233 224
-40 52 -63 66 -201 127 -32 14 -84 44 -113 67 -30 22 -82 49 -115 59 -48 15
-70 28 -106 68 -38 42 -49 48 -62 38z m593 -759 c17 -27 6 -60 -36 -115 -76
-100 -84 -170 -27 -242 17 -22 31 -45 31 -52 0 -18 -55 -101 -84 -126 -63 -55
-146 -67 -254 -39 -97 26 -123 46 -170 127 -41 71 -42 77 -38 140 5 66 4 68
-30 103 -29 30 -34 40 -24 51 18 22 63 18 111 -10 24 -14 47 -25 51 -25 4 0
22 23 40 50 37 57 61 67 112 50 34 -11 59 -33 125 -110 27 -31 31 -33 45 -20
10 10 17 41 20 87 6 80 26 130 59 142 27 11 58 5 69 -11z"/>
</g>
</svg>
